<svg fill="#FF9900" role="img" viewBox="0 0 24 24" xmlns="http://www.w3.org/2000/svg"><title>Amazon Web Services</title><path d="M11.956 12.012c-.105.006-.214.032-.303.07-.463.197-.882.497-1.229.873-.139.148-.22.344-.22.548v.006c0 .324.238.605.545.642.146.015.295-.015.422-.086.194-.108.368-.242.518-.396.143-.153.243-.338.286-.532a.852.852 0 00-.019-.525zm11.942-1.748V6.516a.434.434 0 00-.236-.396l-11.41-5.99a.434.434 0 00-.411 0l-11.41 5.99A.436.436 0 00.19 6.516v3.748A4.186 4.186 0 011.666 9.89a.144.144 0 01.162.067l.865 1.488a.144.144 0 01-.06.195 7.15 7.15 0 00-1.874 2.19v3.655a.435.435 0 00.237.397l11.41 5.99a.433.433 0 00.41 0l11.41-5.99a.435.435 0 00.236-.397v-3.655a7.152 7.152 0 00-1.875-2.19.144.144 0 01-.06-.196l.864-1.488a.144.144 0 01.163-.067 4.185 4.185 0 011.475.375zm-3.642-1.815l-.895 1.542a.253.253 0 00.082.34 5.94 5.94 0 011.854 2.408v2.327L12 20.007l-9.297-4.88v-2.327a5.94 5.94 0 011.854-2.408.254.254 0 00.082-.34l-.895-1.542a.254.254 0 00-.323-.105 7.923 7.923 0 00-1.776 1.74V7.073L12 2.302l10.354 5.437v3.064a7.923 7.923 0 00-1.775-1.74.255.255 0 00-.323.106zm-7.665 4.542c-1.04-.648-2.316-.95-3.535-.836-.62.05-1.228.212-1.796.478a2.535 2.535 0 00-1.12 1.054c-.218.423-.331.9-.331 1.385v.014c0 .883.473 1.677 1.258 2.115a3.673 3.673 0 001.769.418c.677.012 1.347-.132 1.956-.421.36-.168.685-.398.96-.681V16.3a.276.276 0 00.276.276h2.158a.276.276 0 00.276-.276v-5.698a3.178 3.178 0 00-.083-.757 1.83 1.83 0 00-.477-.852 1.955 1.955 0 00-1.018-.51c-.482-.093-.974-.11-1.463-.05v.002zM19.38 12.01c-.105.006-.214.032-.303.07-.463.197-.882.497-1.229.873-.139.148-.22.344-.22.548v.006c0 .324.238.605.545.642.146.015.295-.015.422-.086.194-.108.368-.242.518-.396.143-.153.243-.338.286-.532a.852.852 0 00-.019-.525zM15.118 10.457c-1.04-.648-2.316-.95-3.535-.836-.62.05-1.228.212-1.796.478a2.535 2.535 0 00-1.12 1.054c-.218.423-.331.9-.331 1.385v.014c0 .883.473 1.677 1.258 2.115a3.673 3.673 0 001.769.418c.677.012 1.347-.132 1.956-.421.36-.168.685-.398.96-.681V16.3a.276.276 0 00.276.276h2.158a.276.276 0 00.276-.276v-5.698a3.178 3.178 0 00-.083-.757 1.83 1.83 0 00-.477-.852 1.955 1.955 0 00-1.018-.51c-.482-.093-.974-.11-1.463-.05v.002z"/></svg>
